<?xml version="1.0" encoding="UTF-8" standalone="no"?>
<!-- Generator: Adobe Illustrator 18.0.0, SVG Export Plug-In . SVG Version: 6.00 Build 0)  -->

<svg
   xmlns:dc="http://purl.org/dc/elements/1.1/"
   xmlns:cc="http://creativecommons.org/ns#"
   xmlns:rdf="http://www.w3.org/1999/02/22-rdf-syntax-ns#"
   xmlns:svg="http://www.w3.org/2000/svg"
   xmlns="http://www.w3.org/2000/svg"
   xmlns:sodipodi="http://sodipodi.sourceforge.net/DTD/sodipodi-0.dtd"
   xmlns:inkscape="http://www.inkscape.org/namespaces/inkscape"
   version="1.1"
   id="Layer_1"
   x="0px"
   y="0px"
   width="702"
   height="2629.9688"
   viewBox="0 0 702 2629.9687"
   enable-background="new 0 0 702.5 489.1"
   xml:space="preserve"
   inkscape:version="0.48.5 r10040"
   sodipodi:docname="wireframe-browser-content.svg"><metadata
   id="metadata3095"><rdf:RDF><cc:Work
       rdf:about=""><dc:format>image/svg+xml</dc:format><dc:type
         rdf:resource="http://purl.org/dc/dcmitype/StillImage" /><dc:title></dc:title></cc:Work></rdf:RDF></metadata><defs
   id="defs3093" /><sodipodi:namedview
   pagecolor="#ffffff"
   bordercolor="#666666"
   borderopacity="1"
   objecttolerance="10"
   gridtolerance="10"
   guidetolerance="10"
   inkscape:pageopacity="0"
   inkscape:pageshadow="2"
   inkscape:window-width="1366"
   inkscape:window-height="705"
   id="namedview3091"
   showgrid="false"
   inkscape:zoom="1.3738411"
   inkscape:cx="295.32807"
   inkscape:cy="2509.367"
   inkscape:window-x="-8"
   inkscape:window-y="-8"
   inkscape:window-maximized="1"
   inkscape:current-layer="Layer_1"
   fit-margin-top="0"
   fit-margin-left="0"
   fit-margin-right="0"
   fit-margin-bottom="0" />










<g
   id="g4738"
   transform="translate(0.1875,419.31247)"><path
     inkscape:connector-curvature="0"
     style="fill:none;stroke:#615c85;stroke-width:2;stroke-miterlimit:10;stroke-opacity:1"
     id="path3042"
     d="m 700.8,2209.65 -700,0 0,-2619.95001 c 0,-4.4 3.6,-8 8,-8 l 684,0 c 4.4,0 8,3.6 8,8 z"
     stroke-miterlimit="10"
     sodipodi:nodetypes="ccssssc" /><circle
     transform="translate(0,-419.10001)"
     sodipodi:ry="4.9000001"
     sodipodi:rx="4.9000001"
     sodipodi:cy="17.1"
     sodipodi:cx="25.200001"
     style="fill:#fbe49d;fill-opacity:1;stroke:#615c85;stroke-width:2;stroke-miterlimit:10"
     id="circle3044"
     r="4.9000001"
     cy="17.1"
     cx="25.200001"
     stroke-miterlimit="10"
     d="m 30.100001,17.1 c 0,2.706196 -2.193805,4.9 -4.9,4.9 -2.706196,0 -4.9,-2.193804 -4.9,-4.9 0,-2.706195 2.193804,-4.9 4.9,-4.9 2.706195,0 4.9,2.193805 4.9,4.9 z" /><circle
     transform="translate(0,-419.10001)"
     sodipodi:ry="4.9000001"
     sodipodi:rx="4.9000001"
     sodipodi:cy="17.1"
     sodipodi:cx="42.400002"
     style="fill:#abeaba;fill-opacity:1;stroke:#615c85;stroke-width:2;stroke-miterlimit:10"
     id="circle3046"
     r="4.9000001"
     cy="17.1"
     cx="42.400002"
     stroke-miterlimit="10"
     d="m 47.300002,17.1 c 0,2.706196 -2.193805,4.9 -4.9,4.9 -2.706196,0 -4.900001,-2.193804 -4.900001,-4.9 0,-2.706195 2.193805,-4.9 4.900001,-4.9 2.706195,0 4.9,2.193805 4.9,4.9 z" /><circle
     transform="translate(0,-419.10001)"
     sodipodi:ry="4.9000001"
     sodipodi:rx="4.9000001"
     sodipodi:cy="17.1"
     sodipodi:cx="59.5"
     style="fill:#f9b6a9;fill-opacity:1;stroke:#615c85;stroke-width:2;stroke-miterlimit:10"
     id="circle3048"
     r="4.9000001"
     cy="17.1"
     cx="59.5"
     stroke-miterlimit="10"
     d="m 64.4,17.1 c 0,2.706196 -2.193805,4.9 -4.9,4.9 -2.706195,0 -4.9,-2.193804 -4.9,-4.9 0,-2.706195 2.193805,-4.9 4.9,-4.9 2.706195,0 4.9,2.193805 4.9,4.9 z" /><g
     transform="translate(0,-419.10001)"
     style="fill-opacity:1;stroke:#615c85"
     id="g3050">
	<g
   style="fill-opacity:1;stroke:#615c85"
   id="g3052">
		
			<line
   style="fill:none;stroke:#615c85;stroke-width:2;stroke-linecap:round;stroke-linejoin:round;stroke-miterlimit:10"
   id="line3054"
   y2="44"
   x2="692.5"
   y1="44"
   x1="676.90002"
   stroke-miterlimit="10" />
		
			<line
   style="fill:none;stroke:#615c85;stroke-width:2;stroke-linecap:round;stroke-linejoin:round;stroke-miterlimit:10"
   id="line3056"
   y2="49.799999"
   x2="692.5"
   y1="49.799999"
   x1="676.90002"
   stroke-miterlimit="10" />
		
			<line
   style="fill:none;stroke:#615c85;stroke-width:2;stroke-linecap:round;stroke-linejoin:round;stroke-miterlimit:10"
   id="line3058"
   y2="55.599998"
   x2="692.5"
   y1="55.599998"
   x1="676.90002"
   stroke-miterlimit="10" />
	</g>
</g><g
     transform="translate(0,-419.10001)"
     style="fill-opacity:1;stroke:#615c85"
     id="g3060">
	<g
   style="fill-opacity:1;stroke:#615c85"
   id="g3062">
		<g
   style="fill-opacity:1;stroke:#615c85"
   id="g3064">
			
				<polyline
   style="fill:none;stroke:#615c85;stroke-width:2;stroke-linecap:round;stroke-linejoin:round;stroke-miterlimit:10"
   id="polyline3066"
   points="     17.2,57.2 9.7,49.8 17.2,42.3    "
   stroke-miterlimit="10" />
		</g>
		
			<line
   style="fill:none;stroke:#615c85;stroke-width:2;stroke-linecap:round;stroke-linejoin:round;stroke-miterlimit:10"
   id="line3068"
   y2="49.799999"
   x2="25"
   y1="49.799999"
   x1="9.6999998"
   stroke-miterlimit="10" />
	</g>
	<g
   style="fill-opacity:1;stroke:#615c85"
   id="g3070">
		<g
   style="fill-opacity:1;stroke:#615c85"
   id="g3072">
			
				<polyline
   style="fill:none;stroke:#615c85;stroke-width:2;stroke-linecap:round;stroke-linejoin:round;stroke-miterlimit:10"
   id="polyline3074"
   points="     44.4,42.3 51.8,49.8 44.3,57.2    "
   stroke-miterlimit="10" />
		</g>
		
			<line
   style="fill:none;stroke:#615c85;stroke-width:2;stroke-linecap:round;stroke-linejoin:round;stroke-miterlimit:10"
   id="line3076"
   y2="49.799999"
   x2="36.5"
   y1="49.799999"
   x1="51.799999"
   stroke-miterlimit="10" />
	</g>
	<g
   style="fill-opacity:1;stroke:#615c85"
   id="g3078">
		<path
   inkscape:connector-curvature="0"
   style="fill:none;stroke:#615c85;stroke-width:2;stroke-linecap:round;stroke-miterlimit:10"
   id="path3080"
   d="m 75.2,54.5 c -1,0.7 -2.2,1.2 -3.6,1.2 -3.3,0 -5.9,-2.6 -5.9,-5.9 0,-3.3 2.6,-5.9 5.9,-5.9 2.5,0 4.7,1.6 5.5,3.9"
   stroke-miterlimit="10" />
		
			<polygon
   style="fill:#fffedf;fill-opacity:1;stroke:#615c85;stroke-width:2;stroke-linecap:round;stroke-linejoin:round;stroke-miterlimit:10"
   id="polygon3082"
   points="78.7,48.9 74,48.9 78.7,44.2 "
   stroke-miterlimit="10" />
	</g>
</g><path
     inkscape:connector-curvature="0"
     style="fill:none;stroke:#615c85;stroke-width:2;stroke-miterlimit:10;stroke-opacity:1"
     id="path3084"
     d="M 665.6,-357.80001 H 95.1 c -1.1,0 -2,-0.9 -2,-2 v -19 c 0,-1.1 0.9,-2 2,-2 h 570.5 c 1.1,0 2,0.9 2,2 v 19 c 0,1.1 -0.9,2 -2,2 z"
     stroke-miterlimit="10" /><path
     inkscape:connector-curvature="0"
     style="fill:none;stroke:#615c85;stroke-width:2;stroke-miterlimit:10;stroke-opacity:1"
     id="path3086"
     d="m 284.5,-386.40001 h 416.3 v 34.2 H 0.8 v -34.2 h 76.1 c 0,0 2,-0.1 3,-2.3 1,-2.2 6.7,-17.4 8.1,-19.4 1,-1.5 2.5,-2.3 3.5,-2.3 2.3,0 32.8,0 32.8,0 h 113 c 0,0 30.5,0 32.8,0 1,0 2.5,0.8 3.5,2.3 1.4,2 7.1,17.3 8.1,19.4 1,2.1 2.8,2.3 2.8,2.3 z"
     stroke-miterlimit="10" /><path
     inkscape:connector-curvature="0"
     style="fill:none;stroke:#615c85;stroke-width:2;stroke-miterlimit:10;stroke-opacity:1"
     id="path3088"
     d="m 309.4,-392.30001 h -20.8 c -0.9,0 -1.7,-0.5 -2,-1.4 l -4.2,-10.4 c -0.6,-1.4 0.5,-3 2,-3 h 20.8 c 0.9,0 1.7,0.5 2,1.4 l 4.2,10.4 c 0.6,1.5 -0.4,3 -2,3 z"
     stroke-miterlimit="10" /><g
     transform="translate(0,-419.10001)"
     id="text3900"
     style="font-size:12px;fill:#615c85;fill-opacity:1;font-family:'\'Arial\',\'Helvetica\',sans-serif'" /></g><g
   style="font-size:12.5px;font-style:normal;font-variant:normal;font-weight:normal;font-stretch:normal;line-height:100%;letter-spacing:0px;word-spacing:0px;fill:#615c85;fill-opacity:1;stroke:none;font-family:Klavika Regular;-inkscape-font-specification:Klavika Regular"
   id="text3082"><path
     id="path4004"
     style="fill:#615c85;font-family:Arial;-inkscape-font-specification:Arial"
     d="m 374.14244,54.154568 2.59399,-9.25293 0.87891,0 -2.58789,9.25293 z m -5.86548,-2.087403 1.08643,-0.170898 c 0.061,0.435386 0.23091,0.769044 0.50964,1.000976 0.27873,0.231935 0.66833,0.347902 1.16882,0.347901 0.50456,10e-7 0.87891,-0.102742 1.12305,-0.308228 0.24414,-0.205483 0.36621,-0.446572 0.36621,-0.723266 0,-0.248208 -0.10783,-0.44352 -0.32348,-0.585938 -0.15056,-0.09765 -0.52491,-0.221758 -1.12305,-0.372314 -0.80567,-0.203448 -1.36414,-0.379432 -1.67542,-0.527954 -0.31128,-0.148516 -0.54728,-0.354001 -0.708,-0.616455 -0.16073,-0.262447 -0.24109,-0.552364 -0.24109,-0.869751 0,-0.288895 0.0661,-0.556432 0.19836,-0.802613 0.13224,-0.246169 0.3123,-0.450637 0.54016,-0.613403 0.1709,-0.126133 0.40385,-0.232944 0.69886,-0.320435 0.295,-0.08748 0.61136,-0.131219 0.94909,-0.131225 0.50863,6e-6 0.9552,0.07325 1.33972,0.219726 0.38452,0.146491 0.66833,0.344855 0.85144,0.595093 0.1831,0.25025 0.30924,0.584926 0.37842,1.004029 l -1.07422,0.146484 c -0.0488,-0.333654 -0.19023,-0.59407 -0.42419,-0.78125 -0.23397,-0.187169 -0.56458,-0.280756 -0.99182,-0.280762 -0.50456,6e-6 -0.86467,0.08342 -1.08032,0.250244 -0.21566,0.166835 -0.32349,0.362147 -0.32349,0.585938 0,0.14242 0.0448,0.270594 0.13428,0.384521 0.0895,0.118006 0.22989,0.215662 0.42114,0.292969 0.10986,0.04069 0.43335,0.134281 0.97046,0.280762 0.77718,0.207523 1.31937,0.377404 1.62659,0.509643 0.3072,0.132246 0.54829,0.324507 0.72326,0.576783 0.17496,0.252281 0.26245,0.565594 0.26245,0.939941 0,0.366212 -0.10681,0.711061 -0.32043,1.034546 -0.21363,0.323487 -0.52186,0.573731 -0.92468,0.750732 -0.40284,0.177002 -0.85857,0.265503 -1.36719,0.265503 -0.84229,0 -1.48417,-0.174967 -1.92566,-0.524902 -0.44149,-0.349934 -0.72327,-0.868733 -0.84534,-1.556397 z m -6.25,0 1.08643,-0.170898 c 0.061,0.435386 0.23091,0.769044 0.50964,1.000976 0.27873,0.231935 0.66833,0.347902 1.16882,0.347901 0.50456,10e-7 0.87891,-0.102742 1.12305,-0.308228 0.24414,-0.205483 0.36621,-0.446572 0.36621,-0.723266 0,-0.248208 -0.10783,-0.44352 -0.32348,-0.585938 -0.15056,-0.09765 -0.52491,-0.221758 -1.12305,-0.372314 -0.80567,-0.203448 -1.36414,-0.379432 -1.67542,-0.527954 -0.31128,-0.148516 -0.54728,-0.354001 -0.708,-0.616455 -0.16073,-0.262447 -0.24109,-0.552364 -0.24109,-0.869751 0,-0.288895 0.0661,-0.556432 0.19836,-0.802613 0.13224,-0.246169 0.3123,-0.450637 0.54016,-0.613403 0.1709,-0.126133 0.40385,-0.232944 0.69886,-0.320435 0.295,-0.08748 0.61136,-0.131219 0.94909,-0.131225 0.50863,6e-6 0.9552,0.07325 1.33972,0.219726 0.38452,0.146491 0.66833,0.344855 0.85144,0.595093 0.1831,0.25025 0.30924,0.584926 0.37842,1.004029 l -1.07422,0.146484 c -0.0488,-0.333654 -0.19023,-0.59407 -0.42419,-0.78125 -0.23397,-0.187169 -0.56458,-0.280756 -0.99182,-0.280762 -0.50456,6e-6 -0.86467,0.08342 -1.08032,0.250244 -0.21566,0.166835 -0.32349,0.362147 -0.32349,0.585938 0,0.14242 0.0448,0.270594 0.13428,0.384521 0.0895,0.118006 0.22989,0.215662 0.42114,0.292969 0.10986,0.04069 0.43335,0.134281 0.97046,0.280762 0.77718,0.207523 1.31937,0.377404 1.62659,0.509643 0.3072,0.132246 0.54829,0.324507 0.72326,0.576783 0.17496,0.252281 0.26245,0.565594 0.26245,0.939941 0,0.366212 -0.10681,0.711061 -0.32043,1.034546 -0.21363,0.323487 -0.52186,0.573731 -0.92468,0.750732 -0.40284,0.177002 -0.85857,0.265503 -1.36719,0.265503 -0.84229,0 -1.48417,-0.174967 -1.92566,-0.524902 -0.44149,-0.349934 -0.72327,-0.868733 -0.84534,-1.556397 z m -1.58081,-0.439453 1.08032,0.140381 c -0.118,0.744631 -0.42013,1.327516 -0.90637,1.748657 -0.48625,0.421143 -1.08338,0.631714 -1.79138,0.631714 -0.88705,0 -1.60014,-0.289917 -2.13928,-0.869751 -0.53915,-0.579832 -0.80872,-1.410927 -0.80872,-2.493286 0,-0.699866 0.11597,-1.312251 0.3479,-1.837158 0.23193,-0.524897 0.58492,-0.918573 1.05896,-1.18103 0.47404,-0.262445 0.98979,-0.393671 1.54724,-0.393677 0.70394,6e-6 1.2797,0.178026 1.7273,0.534057 0.44758,0.356045 0.73445,0.861619 0.86059,1.516724 l -1.06811,0.164795 c -0.10173,-0.435379 -0.28178,-0.762934 -0.54016,-0.982666 -0.25839,-0.219721 -0.57068,-0.329584 -0.93689,-0.32959 -0.55339,6e-6 -1.00302,0.19837 -1.34888,0.595093 -0.34587,0.396733 -0.5188,1.024377 -0.5188,1.882935 0,0.87077 0.16683,1.503501 0.50049,1.898193 0.33366,0.394695 0.76904,0.592042 1.30615,0.592041 0.43131,10e-7 0.79142,-0.132242 1.08033,-0.396729 0.28889,-0.264484 0.472,-0.671385 0.54931,-1.220703 z m -10.91919,0.439453 1.08643,-0.170898 c 0.061,0.435386 0.23091,0.769044 0.50964,1.000976 0.27873,0.231935 0.66833,0.347902 1.16882,0.347901 0.50456,10e-7 0.87891,-0.102742 1.12305,-0.308228 0.24414,-0.205483 0.36621,-0.446572 0.36621,-0.723266 0,-0.248208 -0.10783,-0.44352 -0.32348,-0.585938 -0.15056,-0.09765 -0.52491,-0.221758 -1.12305,-0.372314 -0.80567,-0.203448 -1.36414,-0.379432 -1.67542,-0.527954 -0.31128,-0.148516 -0.54728,-0.354001 -0.708,-0.616455 -0.16073,-0.262447 -0.24109,-0.552364 -0.24109,-0.869751 0,-0.288895 0.0661,-0.556432 0.19836,-0.802613 0.13224,-0.246169 0.3123,-0.450637 0.54016,-0.613403 0.1709,-0.126133 0.40385,-0.232944 0.69886,-0.320435 0.295,-0.08748 0.61136,-0.131219 0.94909,-0.131225 0.50863,6e-6 0.9552,0.07325 1.33972,0.219726 0.38452,0.146491 0.66833,0.344855 0.85144,0.595093 0.1831,0.25025 0.30924,0.584926 0.37842,1.004029 l -1.07422,0.146484 c -0.0488,-0.333654 -0.19023,-0.59407 -0.42419,-0.78125 -0.23397,-0.187169 -0.56458,-0.280756 -0.99182,-0.280762 -0.50456,6e-6 -0.86467,0.08342 -1.08032,0.250244 -0.21566,0.166835 -0.32349,0.362147 -0.32349,0.585938 0,0.14242 0.0448,0.270594 0.13428,0.384521 0.0895,0.118006 0.22989,0.215662 0.42114,0.292969 0.10986,0.04069 0.43335,0.134281 0.97046,0.280762 0.77718,0.207523 1.31937,0.377404 1.62659,0.509643 0.3072,0.132246 0.54829,0.324507 0.72326,0.576783 0.17496,0.252281 0.26245,0.565594 0.26245,0.939941 0,0.366212 -0.10681,0.711061 -0.32043,1.034546 -0.21363,0.323487 -0.52186,0.573731 -0.92468,0.750732 -0.40284,0.177002 -0.85857,0.265503 -1.36719,0.265503 -0.84229,0 -1.48417,-0.174967 -1.92566,-0.524902 -0.44149,-0.349934 -0.72327,-0.868733 -0.84534,-1.556397 z m -2.0813,-0.152588 1.13526,0.140381 c -0.17905,0.66325 -0.51067,1.17798 -0.99488,1.54419 -0.48421,0.366211 -1.1027,0.549316 -1.85546,0.549316 -0.94809,0 -1.69984,-0.291951 -2.25525,-0.875854 -0.55542,-0.583902 -0.83313,-1.402789 -0.83313,-2.456665 0,-1.090491 0.28076,-1.936844 0.84228,-2.539063 0.56152,-0.602207 1.28988,-0.903314 2.18506,-0.90332 0.8667,6e-6 1.5747,0.295009 2.12402,0.88501 0.54931,0.590011 0.82397,1.420089 0.82398,2.490234 -1e-5,0.06511 -0.002,0.162764 -0.006,0.292969 l -4.83398,0 c 0.0407,0.712079 0.2421,1.257326 0.60425,1.635742 0.36214,0.378419 0.8138,0.567628 1.35498,0.567627 0.40283,10e-7 0.74666,-0.105794 1.03149,-0.317383 0.28483,-0.211587 0.51066,-0.549315 0.67749,-1.013184 z m -3.60717,-1.776123 3.61938,0 c -0.0488,-0.545243 -0.18718,-0.954178 -0.41504,-1.226806 -0.34994,-0.423172 -0.80363,-0.63476 -1.36108,-0.634766 -0.50456,6e-6 -0.92876,0.16887 -1.27259,0.506592 -0.34383,0.337733 -0.53405,0.789392 -0.57067,1.35498 z m -3.6377,3.863526 0,-8.947754 1.09863,0 0,8.947754 z m -1.99585,-2.374268 1.08032,0.140381 c -0.118,0.744631 -0.42013,1.327516 -0.90637,1.748657 -0.48625,0.421143 -1.08338,0.631714 -1.79138,0.631714 -0.88705,0 -1.60014,-0.289917 -2.13928,-0.869751 -0.53915,-0.579832 -0.80872,-1.410927 -0.80872,-2.493286 0,-0.699866 0.11597,-1.312251 0.3479,-1.837158 0.23193,-0.524897 0.58492,-0.918573 1.05896,-1.18103 0.47404,-0.262445 0.98979,-0.393671 1.54724,-0.393677 0.70394,6e-6 1.2797,0.178026 1.7273,0.534057 0.44758,0.356045 0.73445,0.861619 0.86059,1.516724 l -1.06811,0.164795 c -0.10173,-0.435379 -0.28179,-0.762934 -0.54016,-0.982666 -0.25839,-0.219721 -0.57069,-0.329584 -0.93689,-0.32959 -0.55339,6e-6 -1.00302,0.19837 -1.34888,0.595093 -0.34587,0.396733 -0.5188,1.024377 -0.5188,1.882935 0,0.87077 0.16683,1.503501 0.50049,1.898193 0.33366,0.394695 0.76904,0.592042 1.30615,0.592041 0.43131,10e-7 0.79142,-0.132242 1.08032,-0.396729 0.2889,-0.264484 0.472,-0.671385 0.54932,-1.220703 z m -8.41675,2.374268 0,-6.481934 0.98877,0 0,0.982666 c 0.25228,-0.459792 0.48523,-0.762933 0.69885,-0.909424 0.21363,-0.146477 0.44861,-0.21972 0.70496,-0.219726 0.37028,6e-6 0.74666,0.118008 1.12915,0.354004 l -0.37842,1.019287 c -0.26856,-0.158686 -0.53711,-0.238032 -0.80566,-0.238037 -0.24008,5e-6 -0.45573,0.07223 -0.64697,0.216675 -0.19125,0.144455 -0.32756,0.344853 -0.40894,0.601196 -0.12207,0.390629 -0.18311,0.817875 -0.1831,1.281738 l 0,3.393555 z m -2.76489,-7.684326 0,-1.263428 1.09863,0 0,1.263428 z m 0,7.684326 0,-6.481934 1.09863,0 0,6.481934 z m -2.02637,-2.374268 1.08033,0.140381 c -0.11801,0.744631 -0.42014,1.327516 -0.90638,1.748657 -0.48625,0.421143 -1.08337,0.631714 -1.79138,0.631714 -0.88705,0 -1.60014,-0.289917 -2.13928,-0.869751 -0.53915,-0.579832 -0.80872,-1.410927 -0.80872,-2.493286 0,-0.699866 0.11597,-1.312251 0.3479,-1.837158 0.23194,-0.524897 0.58492,-0.918573 1.05896,-1.18103 0.47404,-0.262445 0.98979,-0.393671 1.54724,-0.393677 0.70394,6e-6 1.2797,0.178026 1.7273,0.534057 0.44759,0.356045 0.73445,0.861619 0.8606,1.516724 l -1.06812,0.164795 c -0.10173,-0.435379 -0.28178,-0.762934 -0.54016,-0.982666 -0.25839,-0.219721 -0.57068,-0.329584 -0.93689,-0.32959 -0.55339,6e-6 -1.00301,0.19837 -1.34888,0.595093 -0.34587,0.396733 -0.5188,1.024377 -0.5188,1.882935 0,0.87077 0.16683,1.503501 0.50049,1.898193 0.33366,0.394695 0.76904,0.592042 1.30615,0.592041 0.43132,10e-7 0.79142,-0.132242 1.08033,-0.396729 0.28889,-0.264484 0.472,-0.671385 0.54931,-1.220703 z m -10.91919,0.439453 1.08643,-0.170898 c 0.061,0.435386 0.23091,0.769044 0.50964,1.000976 0.27873,0.231935 0.66834,0.347902 1.16883,0.347901 0.50455,10e-7 0.8789,-0.102742 1.12304,-0.308228 0.24414,-0.205483 0.36621,-0.446572 0.36621,-0.723266 0,-0.248208 -0.10783,-0.44352 -0.32348,-0.585938 -0.15056,-0.09765 -0.52491,-0.221758 -1.12305,-0.372314 -0.80567,-0.203448 -1.36414,-0.379432 -1.67541,-0.527954 -0.31128,-0.148516 -0.54729,-0.354001 -0.70801,-0.616455 -0.16073,-0.262447 -0.24109,-0.552364 -0.24109,-0.869751 0,-0.288895 0.0661,-0.556432 0.19836,-0.802613 0.13225,-0.246169 0.3123,-0.450637 0.54016,-0.613403 0.1709,-0.126133 0.40385,-0.232944 0.69886,-0.320435 0.295,-0.08748 0.61136,-0.131219 0.94909,-0.131225 0.50863,6e-6 0.9552,0.07325 1.33973,0.219726 0.38451,0.146491 0.66833,0.344855 0.85144,0.595093 0.1831,0.25025 0.30924,0.584926 0.37841,1.004029 l -1.07422,0.146484 c -0.0488,-0.333654 -0.19023,-0.59407 -0.42419,-0.78125 -0.23397,-0.187169 -0.56458,-0.280756 -0.99182,-0.280762 -0.50456,6e-6 -0.86467,0.08342 -1.08032,0.250244 -0.21566,0.166835 -0.32349,0.362147 -0.32349,0.585938 0,0.14242 0.0448,0.270594 0.13428,0.384521 0.0895,0.118006 0.2299,0.215662 0.42114,0.292969 0.10986,0.04069 0.43335,0.134281 0.97046,0.280762 0.77718,0.207523 1.31937,0.377404 1.62659,0.509643 0.3072,0.132246 0.54829,0.324507 0.72326,0.576783 0.17496,0.252281 0.26245,0.565594 0.26245,0.939941 0,0.366212 -0.10681,0.711061 -0.32043,1.034546 -0.21363,0.323487 -0.52186,0.573731 -0.92468,0.750732 -0.40284,0.177002 -0.85857,0.265503 -1.36719,0.265503 -0.84229,0 -1.48417,-0.174967 -1.92566,-0.524902 -0.44149,-0.349934 -0.72327,-0.868733 -0.84534,-1.556397 z m -6.25,0 1.08643,-0.170898 c 0.061,0.435386 0.23091,0.769044 0.50964,1.000976 0.27873,0.231935 0.66834,0.347902 1.16883,0.347901 0.50455,10e-7 0.8789,-0.102742 1.12304,-0.308228 0.24414,-0.205483 0.36621,-0.446572 0.36621,-0.723266 0,-0.248208 -0.10783,-0.44352 -0.32348,-0.585938 -0.15056,-0.09765 -0.52491,-0.221758 -1.12305,-0.372314 -0.80567,-0.203448 -1.36414,-0.379432 -1.67541,-0.527954 -0.31128,-0.148516 -0.54729,-0.354001 -0.70801,-0.616455 -0.16073,-0.262447 -0.24109,-0.552364 -0.24109,-0.869751 0,-0.288895 0.0661,-0.556432 0.19836,-0.802613 0.13225,-0.246169 0.3123,-0.450637 0.54016,-0.613403 0.1709,-0.126133 0.40385,-0.232944 0.69886,-0.320435 0.295,-0.08748 0.61136,-0.131219 0.94909,-0.131225 0.50863,6e-6 0.9552,0.07325 1.33973,0.219726 0.38451,0.146491 0.66833,0.344855 0.85144,0.595093 0.1831,0.25025 0.30924,0.584926 0.37841,1.004029 l -1.07422,0.146484 c -0.0488,-0.333654 -0.19023,-0.59407 -0.42419,-0.78125 -0.23397,-0.187169 -0.56458,-0.280756 -0.99182,-0.280762 -0.50456,6e-6 -0.86467,0.08342 -1.08032,0.250244 -0.21566,0.166835 -0.32349,0.362147 -0.32349,0.585938 0,0.14242 0.0448,0.270594 0.13428,0.384521 0.0895,0.118006 0.2299,0.215662 0.42114,0.292969 0.10986,0.04069 0.43335,0.134281 0.97046,0.280762 0.77718,0.207523 1.31937,0.377404 1.62659,0.509643 0.3072,0.132246 0.54829,0.324507 0.72326,0.576783 0.17496,0.252281 0.26245,0.565594 0.26245,0.939941 0,0.366212 -0.10681,0.711061 -0.32043,1.034546 -0.21363,0.323487 -0.52186,0.573731 -0.92468,0.750732 -0.40284,0.177002 -0.85857,0.265503 -1.36719,0.265503 -0.84229,0 -1.48417,-0.174967 -1.92566,-0.524902 -0.44149,-0.349934 -0.72327,-0.868733 -0.84534,-1.556397 z m -2.0813,-0.152588 1.13526,0.140381 c -0.17904,0.66325 -0.51067,1.17798 -0.99487,1.54419 -0.48422,0.366211 -1.10271,0.549316 -1.85547,0.549316 -0.94809,0 -1.69983,-0.291951 -2.25525,-0.875854 -0.55542,-0.583902 -0.83313,-1.402789 -0.83313,-2.456665 0,-1.090491 0.28076,-1.936844 0.84228,-2.539063 0.56152,-0.602207 1.28988,-0.903314 2.18506,-0.90332 0.8667,6e-6 1.5747,0.295009 2.12403,0.88501 0.54931,0.590011 0.82396,1.420089 0.82397,2.490234 -10e-6,0.06511 -0.002,0.162764 -0.006,0.292969 l -4.83399,0 c 0.0407,0.712079 0.24211,1.257326 0.60425,1.635742 0.36214,0.378419 0.8138,0.567628 1.35498,0.567627 0.40283,10e-7 0.74666,-0.105794 1.03149,-0.317383 0.28483,-0.211587 0.51066,-0.549315 0.67749,-1.013184 z m -3.60717,-1.776123 3.61938,0 c -0.0488,-0.545243 -0.18718,-0.954178 -0.41504,-1.226806 -0.34994,-0.423172 -0.80363,-0.63476 -1.36108,-0.634766 -0.50456,6e-6 -0.92876,0.16887 -1.27258,0.506592 -0.34384,0.337733 -0.53406,0.789392 -0.57068,1.35498 z m -5.01709,3.863526 0,-6.481934 0.98877,0 0,0.982666 c 0.25227,-0.459792 0.48522,-0.762933 0.69885,-0.909424 0.21362,-0.146477 0.4486,-0.21972 0.70496,-0.219726 0.37027,6e-6 0.74665,0.118008 1.12915,0.354004 l -0.37842,1.019287 c -0.26856,-0.158686 -0.53712,-0.238032 -0.80567,-0.238037 -0.24007,5e-6 -0.45573,0.07223 -0.64697,0.216675 -0.19124,0.144455 -0.32756,0.344853 -0.40893,0.601196 -0.12208,0.390629 -0.18311,0.817875 -0.18311,1.281738 l 0,3.393555 z m -7.14722,0.537109 1.06812,0.158692 c 0.0448,0.329588 0.16886,0.56966 0.37231,0.720214 0.27262,0.203449 0.64494,0.305175 1.11694,0.305176 0.50863,-10e-7 0.90129,-0.101727 1.17798,-0.305176 0.27669,-0.203451 0.46386,-0.488282 0.56153,-0.854492 0.057,-0.223796 0.0834,-0.693766 0.0793,-1.409912 -0.48015,0.565593 -1.07829,0.848389 -1.79443,0.848389 -0.89112,0 -1.58081,-0.321452 -2.06909,-0.964356 -0.48829,-0.642902 -0.73243,-1.413978 -0.73243,-2.313232 0,-0.618486 0.1119,-1.189164 0.3357,-1.712036 0.22379,-0.522863 0.54829,-0.926711 0.97351,-1.211548 0.42521,-0.284824 0.92468,-0.42724 1.49841,-0.427246 0.76497,6e-6 1.39567,0.309251 1.89209,0.927734 l 0,-0.78125 1.01318,0 0,5.603028 c 0,1.009114 -0.10274,1.724242 -0.30822,2.145385 -0.20549,0.421141 -0.53101,0.753782 -0.97657,0.997925 -0.44556,0.244138 -0.99386,0.366208 -1.64489,0.366211 -0.77312,-3e-6 -1.39771,-0.173953 -1.87378,-0.521851 -0.47608,-0.347902 -0.70598,-0.871786 -0.6897,-1.571655 z m 0.90942,-3.894043 c 0,0.850426 0.16887,1.470949 0.5066,1.861572 0.33772,0.390627 0.7609,0.585939 1.26953,0.585938 0.50455,10e-7 0.92773,-0.194294 1.26953,-0.582886 0.34179,-0.388588 0.51269,-0.997922 0.51269,-1.828003 0,-0.793453 -0.17599,-1.391597 -0.52795,-1.794433 -0.35197,-0.402827 -0.77617,-0.604243 -1.27258,-0.604248 -0.48829,5e-6 -0.90333,0.198369 -1.24512,0.595092 -0.3418,0.396734 -0.5127,0.985722 -0.5127,1.766968 z m -8.07495,0.115967 c 0,-1.200354 0.33366,-2.089431 1.00098,-2.667236 0.55745,-0.480137 1.23698,-0.720209 2.03857,-0.720215 0.89111,6e-6 1.61946,0.291958 2.18506,0.875854 0.56559,0.583909 0.84838,1.390589 0.84839,2.420044 -10e-6,0.83415 -0.12513,1.490277 -0.37537,1.968384 -0.25025,0.47811 -0.61442,0.849407 -1.09252,1.113892 -0.47812,0.264485 -0.99997,0.396728 -1.56556,0.396728 -0.90739,0 -1.64083,-0.290934 -2.20031,-0.872803 -0.55949,-0.581867 -0.83924,-1.420082 -0.83924,-2.514648 z m 1.12915,0 c 0,0.830081 0.18107,1.451621 0.54322,1.864624 0.36214,0.413006 0.81786,0.619508 1.36718,0.619507 0.54525,10e-7 0.99894,-0.207519 1.36109,-0.622559 0.36213,-0.415037 0.54321,-1.047767 0.54321,-1.898193 0,-0.801591 -0.18209,-1.40889 -0.54626,-1.821899 -0.36418,-0.413 -0.81686,-0.619502 -1.35804,-0.619507 -0.54932,5e-6 -1.00504,0.20549 -1.36718,0.616455 -0.36215,0.410975 -0.54322,1.031498 -0.54322,1.861572 z m -4.90722,3.240967 0,-6.481934 0.98877,0 0,0.982666 c 0.25227,-0.459792 0.48522,-0.762933 0.69885,-0.909424 0.21362,-0.146477 0.4486,-0.21972 0.70495,-0.219726 0.37028,6e-6 0.74666,0.118008 1.12916,0.354004 l -0.37842,1.019287 c -0.26856,-0.158686 -0.53712,-0.238032 -0.80567,-0.238037 -0.24007,5e-6 -0.45573,0.07223 -0.64697,0.216675 -0.19125,0.144455 -0.32756,0.344853 -0.40893,0.601196 -0.12208,0.390629 -0.18311,0.817875 -0.18311,1.281738 l 0,3.393555 z m -6.9458,2.484131 0,-8.966065 1.00097,0 0,0.842285 c 0.236,-0.329583 0.50252,-0.576776 0.79956,-0.741577 0.29704,-0.164788 0.65715,-0.247186 1.08033,-0.247192 0.55338,6e-6 1.04166,0.142422 1.46484,0.427246 0.42317,0.284837 0.74259,0.686651 0.95825,1.205444 0.21565,0.518804 0.32348,1.087447 0.32349,1.705933 -1e-5,0.663251 -0.11903,1.260378 -0.35706,1.791382 -0.23804,0.531007 -0.58391,0.937907 -1.0376,1.220703 -0.4537,0.282796 -0.93079,0.424194 -1.43127,0.424194 -0.36621,0 -0.69479,-0.07731 -0.98572,-0.231933 -0.29093,-0.154623 -0.52999,-0.349935 -0.71716,-0.585938 l 0,3.155518 z m 0.99487,-5.688477 c 0,0.83415 0.16886,1.450604 0.50659,1.849365 0.33773,0.398764 0.74666,0.598146 1.22681,0.598145 0.48827,10e-7 0.90637,-0.206501 1.25427,-0.619507 0.3479,-0.413003 0.52185,-1.052854 0.52185,-1.919556 0,-0.826005 -0.16989,-1.444494 -0.50964,-1.855468 -0.33977,-0.410965 -0.74565,-0.61645 -1.21765,-0.616455 -0.46794,5e-6 -0.88197,0.218714 -1.24207,0.656127 -0.36011,0.437424 -0.54016,1.073206 -0.54016,1.907349 z m -5.28565,3.356934 2.594,-9.25293 0.8789,0 -2.58789,9.25293 z m -6.54296,-3.393555 c 0,-1.200354 0.33365,-2.089431 1.00097,-2.667236 0.55745,-0.480137 1.23698,-0.720209 2.03858,-0.720215 0.89111,6e-6 1.61946,0.291958 2.18506,0.875854 0.56558,0.583909 0.84838,1.390589 0.84838,2.420044 0,0.83415 -0.12512,1.490277 -0.37536,1.968384 -0.25025,0.47811 -0.61443,0.849407 -1.09253,1.113892 -0.47811,0.264485 -0.99996,0.396728 -1.56555,0.396728 -0.9074,0 -1.64083,-0.290934 -2.20032,-0.872803 -0.55949,-0.581867 -0.83923,-1.420082 -0.83923,-2.514648 z m 1.12915,0 c -10e-6,0.830081 0.18107,1.451621 0.54321,1.864624 0.36214,0.413006 0.81787,0.619508 1.36719,0.619507 0.54524,10e-7 0.99893,-0.207519 1.36108,-0.622559 0.36214,-0.415037 0.54321,-1.047767 0.54321,-1.898193 0,-0.801591 -0.18209,-1.40889 -0.54626,-1.821899 -0.36418,-0.413 -0.81686,-0.619502 -1.35803,-0.619507 -0.54932,5e-6 -1.00505,0.20549 -1.36719,0.616455 -0.36214,0.410975 -0.54322,1.031498 -0.54321,1.861572 z m -3.49732,-4.443359 0,-1.263428 1.09863,0 0,1.263428 z m 0,7.684326 0,-6.481934 1.09863,0 0,6.481934 z m -3.16162,0 0,-1.251221 1.25122,0 0,1.251221 z m -6.2561,0 -1.01929,0 0,-8.947754 1.09863,0 0,3.192139 c 0.46387,-0.581863 1.05591,-0.872797 1.77613,-0.872803 0.39875,6e-6 0.77616,0.08037 1.1322,0.241089 0.35603,0.160732 0.649,0.386562 0.8789,0.67749 0.2299,0.29094 0.40995,0.641891 0.54017,1.052856 0.1302,0.410975 0.1953,0.850427 0.19531,1.31836 -1e-5,1.110842 -0.27467,1.969402 -0.82398,2.575683 -0.54932,0.606283 -1.2085,0.909424 -1.97754,0.909424 -0.76497,0 -1.36515,-0.319417 -1.80053,-0.958252 z m -0.0122,-3.289795 c 0,0.777183 0.10579,1.338706 0.31738,1.68457 0.34587,0.565594 0.8138,0.84839 1.40381,0.848389 0.48014,10e-7 0.89518,-0.208536 1.24512,-0.62561 0.34993,-0.417072 0.5249,-1.038613 0.5249,-1.864624 0,-0.846351 -0.16785,-1.470943 -0.50354,-1.87378 -0.3357,-0.402826 -0.74158,-0.604242 -1.21765,-0.604248 -0.48015,6e-6 -0.89519,0.208542 -1.24512,0.625611 -0.34993,0.417078 -0.5249,1.020308 -0.5249,1.809692 z m -3.71095,3.289795 0,-0.952149 c -0.50456,0.732422 -1.19019,1.098633 -2.05688,1.098633 -0.38249,0 -0.73955,-0.07324 -1.07117,-0.219726 -0.33163,-0.146485 -0.5778,-0.330607 -0.73852,-0.552369 -0.16073,-0.22176 -0.27365,-0.493366 -0.33875,-0.814819 -0.0448,-0.215656 -0.0671,-0.557452 -0.0671,-1.02539 l 0,-4.016114 1.09863,0 0,3.594971 c 0,0.573733 0.0224,0.960288 0.0671,1.159668 0.0692,0.288901 0.21566,0.515748 0.43946,0.680542 0.22379,0.164796 0.50048,0.247193 0.83007,0.247192 0.32959,10e-7 0.63884,-0.08443 0.92774,-0.253296 0.28889,-0.168862 0.49336,-0.398761 0.6134,-0.689697 0.12003,-0.290932 0.18005,-0.713092 0.18006,-1.266479 l 0,-3.472901 1.09863,0 0,6.481934 z m -11.20605,0 0,-8.947754 1.09863,0 0,3.210449 c 0.51269,-0.594069 1.15967,-0.891107 1.94092,-0.891113 0.48014,6e-6 0.89721,0.09461 1.25122,0.283813 0.354,0.189215 0.60729,0.450649 0.75989,0.784302 0.15258,0.333664 0.22887,0.817876 0.22888,1.452637 l 0,4.107666 -1.09863,0 0,-4.107666 c -10e-6,-0.549312 -0.11903,-0.949092 -0.35706,-1.199341 -0.23804,-0.250239 -0.57475,-0.375361 -1.01013,-0.375366 -0.32553,5e-6 -0.63172,0.08444 -0.91858,0.253296 -0.28687,0.168869 -0.49134,0.39775 -0.6134,0.686645 -0.12208,0.288904 -0.18311,0.687667 -0.18311,1.196289 l 0,3.546143 z m -1.06812,-0.982666 0.15869,0.970459 c -0.30924,0.0651 -0.58594,0.09766 -0.83007,0.09766 -0.39877,0 -0.70801,-0.06307 -0.92774,-0.189209 -0.21973,-0.126139 -0.37435,-0.291951 -0.46387,-0.497436 -0.0895,-0.205485 -0.13427,-0.637817 -0.13427,-1.296998 l 0,-3.729248 -0.80567,0 0,-0.854492 0.80567,0 0,-1.605224 1.09253,-0.65918 0,2.264404 1.10473,0 0,0.854492 -1.10473,0 0,3.790284 c -1e-5,0.313315 0.0193,0.514731 0.058,0.604248 0.0386,0.08952 0.10172,0.160727 0.18921,0.213623 0.0875,0.0529 0.2126,0.07935 0.37536,0.07935 0.12207,10e-7 0.2828,-0.01424 0.48218,-0.04272 z m -5.17578,-6.70166 0,-1.263428 1.09863,0 0,1.263428 z m 0,7.684326 0,-6.481934 1.09863,0 0,6.481934 z m -7.16553,0.537109 1.06812,0.158692 c 0.0448,0.329588 0.16886,0.56966 0.37231,0.720214 0.27263,0.203449 0.64494,0.305175 1.11695,0.305176 0.50862,-10e-7 0.90128,-0.101727 1.17798,-0.305176 0.27668,-0.203451 0.46386,-0.488282 0.56152,-0.854492 0.057,-0.223796 0.0834,-0.693766 0.0793,-1.409912 -0.48014,0.565593 -1.07829,0.848389 -1.79443,0.848389 -0.89111,0 -1.58081,-0.321452 -2.06909,-0.964356 -0.48828,-0.642902 -0.73242,-1.413978 -0.73242,-2.313232 0,-0.618486 0.11189,-1.189164 0.33569,-1.712036 0.2238,-0.522863 0.5483,-0.926711 0.97351,-1.211548 0.42521,-0.284824 0.92468,-0.42724 1.49841,-0.427246 0.76497,6e-6 1.39567,0.309251 1.89209,0.927734 l 0,-0.78125 1.01319,0 0,5.603028 c -1e-5,1.009114 -0.10275,1.724242 -0.30823,2.145385 -0.20549,0.421141 -0.53101,0.753782 -0.97656,0.997925 -0.44556,0.244138 -0.99386,0.366208 -1.6449,0.366211 -0.77311,-3e-6 -1.39771,-0.173953 -1.87378,-0.521851 -0.47607,-0.347902 -0.70597,-0.871786 -0.6897,-1.571655 z m 0.90943,-3.894043 c 0,0.850426 0.16886,1.470949 0.50659,1.861572 0.33773,0.390627 0.7609,0.585939 1.26953,0.585938 0.50455,10e-7 0.92773,-0.194294 1.26953,-0.582886 0.34179,-0.388588 0.51269,-0.997922 0.5127,-1.828003 -1e-5,-0.793453 -0.17599,-1.391597 -0.52796,-1.794433 -0.35197,-0.402827 -0.77616,-0.604243 -1.27258,-0.604248 -0.48828,5e-6 -0.90332,0.198369 -1.24512,0.595092 -0.3418,0.396734 -0.51269,0.985722 -0.51269,1.766968 z m -3.86353,3.356934 0,-1.251221 1.25122,0 0,1.251221 z m -7.67822,-3.240967 c 0,-1.200354 0.33366,-2.089431 1.00098,-2.667236 0.55745,-0.480137 1.23697,-0.720209 2.03857,-0.720215 0.89111,6e-6 1.61946,0.291958 2.18506,0.875854 0.56559,0.583909 0.84838,1.390589 0.84839,2.420044 -1e-5,0.83415 -0.12513,1.490277 -0.37537,1.968384 -0.25025,0.47811 -0.61442,0.849407 -1.09253,1.113892 -0.47811,0.264485 -0.99996,0.396728 -1.56555,0.396728 -0.90739,0 -1.64083,-0.290934 -2.20032,-0.872803 -0.55949,-0.581867 -0.83923,-1.420082 -0.83923,-2.514648 z m 1.12915,0 c 0,0.830081 0.18107,1.451621 0.54321,1.864624 0.36214,0.413006 0.81787,0.619508 1.36719,0.619507 0.54524,10e-7 0.99894,-0.207519 1.36108,-0.622559 0.36214,-0.415037 0.54321,-1.047767 0.54322,-1.898193 -1e-5,-0.801591 -0.1821,-1.40889 -0.54627,-1.821899 -0.36418,-0.413 -0.81685,-0.619502 -1.35803,-0.619507 -0.54932,5e-6 -1.00505,0.20549 -1.36719,0.616455 -0.36214,0.410975 -0.54321,1.031498 -0.54321,1.861572 z m -3.4729,3.240967 0,-0.817871 c -0.41097,0.642904 -1.01522,0.964355 -1.81274,0.964355 -0.51677,0 -0.99183,-0.142415 -1.42518,-0.427246 -0.43335,-0.28483 -0.76904,-0.682575 -1.00708,-1.193237 -0.23803,-0.510659 -0.35705,-1.097613 -0.35705,-1.760864 0,-0.646969 0.10783,-1.233923 0.32349,-1.760865 0.21565,-0.526931 0.53914,-0.93078 0.97045,-1.211548 0.43132,-0.280755 0.91349,-0.421136 1.44654,-0.421142 0.39062,6e-6 0.73852,0.0824 1.0437,0.247192 0.30517,0.164801 0.55338,0.379441 0.74463,0.643921 l 0,-3.210449 1.09253,0 0,8.947754 z m -3.4729,-3.234863 c 0,0.83008 0.17497,1.450604 0.5249,1.861572 0.34993,0.410971 0.76294,0.616456 1.23902,0.616455 0.48013,10e-7 0.88805,-0.196329 1.22375,-0.588989 0.33569,-0.392658 0.50354,-0.991819 0.50354,-1.797486 0,-0.88704 -0.1709,-1.538081 -0.51269,-1.953125 -0.34181,-0.415033 -0.76295,-0.622553 -1.26343,-0.622558 -0.48829,5e-6 -0.8962,0.199387 -1.22376,0.598144 -0.32755,0.398768 -0.49133,1.027429 -0.49133,1.885987 z m -3.44238,3.234863 0,-0.952149 c -0.50457,0.732422 -1.19019,1.098633 -2.05689,1.098633 -0.38249,0 -0.73954,-0.07324 -1.07117,-0.219726 -0.33162,-0.146485 -0.5778,-0.330607 -0.73852,-0.552369 -0.16073,-0.22176 -0.27364,-0.493366 -0.33875,-0.814819 -0.0448,-0.215656 -0.0671,-0.557452 -0.0671,-1.02539 l 0,-4.016114 1.09863,0 0,3.594971 c 0,0.573733 0.0224,0.960288 0.0671,1.159668 0.0692,0.288901 0.21565,0.515748 0.43945,0.680542 0.22379,0.164796 0.50049,0.247193 0.83008,0.247192 0.32958,10e-7 0.63883,-0.08443 0.92773,-0.253296 0.2889,-0.168862 0.49337,-0.398761 0.61341,-0.689697 0.12003,-0.290932 0.18004,-0.713092 0.18005,-1.266479 l 0,-3.472901 1.09863,0 0,6.481934 z m -11.20606,0 0,-6.481934 0.98877,0 0,0.921631 c 0.47607,-0.71207 1.16374,-1.068109 2.06299,-1.068115 0.39062,6e-6 0.74971,0.0702 1.07727,0.210571 0.32755,0.140387 0.57271,0.32451 0.73547,0.552368 0.16276,0.227871 0.27669,0.498459 0.3418,0.811768 0.0407,0.203455 0.061,0.559493 0.061,1.068115 l 0,3.985596 -1.09864,0 0,-3.942871 c 0,-0.447587 -0.0427,-0.782263 -0.12817,-1.004029 -0.0855,-0.221755 -0.23703,-0.398757 -0.45471,-0.531005 -0.2177,-0.132238 -0.47303,-0.198359 -0.76599,-0.198365 -0.46794,6e-6 -0.87179,0.148525 -1.21155,0.445557 -0.33977,0.297043 -0.50965,0.8606 -0.50965,1.690674 l 0,3.540039 z m -2.72827,-0.799561 c -0.40691,0.345867 -0.79855,0.590007 -1.17493,0.732422 -0.37638,0.142415 -0.78023,0.213623 -1.21154,0.213623 -0.71208,0 -1.25936,-0.17395 -1.64185,-0.52185 -0.38249,-0.3479 -0.57373,-0.792439 -0.57373,-1.333619 0,-0.31738 0.0722,-0.607297 0.21667,-0.869751 0.14445,-0.262448 0.33366,-0.473019 0.56763,-0.631713 0.23397,-0.158688 0.49744,-0.278724 0.79041,-0.360108 0.21565,-0.05696 0.54117,-0.111894 0.97656,-0.164795 0.88704,-0.10579 1.54012,-0.231929 1.95923,-0.378418 0.004,-0.150549 0.006,-0.24617 0.006,-0.286865 0,-0.447586 -0.10376,-0.762934 -0.31128,-0.946045 -0.28076,-0.248204 -0.69784,-0.372309 -1.25122,-0.372314 -0.51677,5e-6 -0.89824,0.09054 -1.14441,0.271606 -0.24618,0.181076 -0.42826,0.501511 -0.54626,0.961304 l -1.07422,-0.146485 c 0.0977,-0.459793 0.25838,-0.831089 0.48218,-1.113891 0.22379,-0.28279 0.54728,-0.500482 0.97046,-0.653076 0.42317,-0.152582 0.91349,-0.228876 1.47094,-0.228882 0.55338,6e-6 1.00301,0.06511 1.34888,0.195312 0.34586,0.130215 0.60017,0.293993 0.76294,0.491333 0.16275,0.197353 0.27669,0.44658 0.3418,0.747681 0.0366,0.18718 0.0549,0.524907 0.0549,1.013184 l 0,1.464843 c -1e-5,1.021324 0.0234,1.667278 0.0702,1.937867 0.0468,0.270589 0.13936,0.529988 0.27771,0.778198 l -1.14746,0 c -0.11394,-0.227865 -0.18718,-0.494384 -0.21973,-0.799561 z m -0.0916,-2.453613 c -0.39877,0.162764 -0.99691,0.30111 -1.79444,0.415039 -0.45166,0.06511 -0.77108,0.138349 -0.95825,0.219727 -0.18717,0.08138 -0.33162,0.200401 -0.43335,0.357055 -0.10172,0.156659 -0.15259,0.330609 -0.15259,0.521851 0,0.29297 0.11088,0.53711 0.33265,0.732422 0.22176,0.195313 0.54626,0.292969 0.97351,0.292968 0.42317,10e-7 0.79955,-0.09257 1.12915,-0.277709 0.32958,-0.185139 0.57169,-0.438435 0.72632,-0.759888 0.11799,-0.248208 0.17699,-0.614418 0.177,-1.098633 z m -6.1584,0.878906 1.08032,0.140381 c -0.118,0.744631 -0.42013,1.327516 -0.90637,1.748657 -0.48625,0.421143 -1.08338,0.631714 -1.79138,0.631714 -0.88705,0 -1.60014,-0.289917 -2.13928,-0.869751 -0.53915,-0.579832 -0.80872,-1.410927 -0.80872,-2.493286 0,-0.699866 0.11597,-1.312251 0.3479,-1.837158 0.23193,-0.524897 0.58492,-0.918573 1.05896,-1.18103 0.47404,-0.262445 0.98979,-0.393671 1.54724,-0.393677 0.70394,6e-6 1.2797,0.178026 1.7273,0.534057 0.44758,0.356045 0.73445,0.861619 0.86059,1.516724 l -1.06811,0.164795 c -0.10173,-0.435379 -0.28179,-0.762934 -0.54016,-0.982666 -0.25839,-0.219721 -0.57069,-0.329584 -0.93689,-0.32959 -0.55339,6e-6 -1.00302,0.19837 -1.34888,0.595093 -0.34587,0.396733 -0.5188,1.024377 -0.5188,1.882935 0,0.87077 0.16683,1.503501 0.50049,1.898193 0.33366,0.394695 0.76904,0.592042 1.30615,0.592041 0.43131,10e-7 0.79142,-0.132242 1.08032,-0.396729 0.2889,-0.264484 0.472,-0.671385 0.54932,-1.220703 z m -11.59668,-0.866699 c 0,-1.200354 0.33366,-2.089431 1.00098,-2.667236 0.55745,-0.480137 1.23697,-0.720209 2.03857,-0.720215 0.89111,6e-6 1.61946,0.291958 2.18506,0.875854 0.56559,0.583909 0.84838,1.390589 0.84839,2.420044 -1e-5,0.83415 -0.12513,1.490277 -0.37537,1.968384 -0.25025,0.47811 -0.61442,0.849407 -1.09253,1.113892 -0.47811,0.264485 -0.99996,0.396728 -1.56555,0.396728 -0.90739,0 -1.64083,-0.290934 -2.20032,-0.872803 -0.55949,-0.581867 -0.83923,-1.420082 -0.83923,-2.514648 z m 1.12915,0 c 0,0.830081 0.18107,1.451621 0.54321,1.864624 0.36214,0.413006 0.81787,0.619508 1.36719,0.619507 0.54524,10e-7 0.99894,-0.207519 1.36109,-0.622559 0.36213,-0.415037 0.5432,-1.047767 0.54321,-1.898193 -1e-5,-0.801591 -0.18209,-1.40889 -0.54627,-1.821899 -0.36418,-0.413 -0.81685,-0.619502 -1.35803,-0.619507 -0.54932,5e-6 -1.00505,0.20549 -1.36719,0.616455 -0.36214,0.410975 -0.54321,1.031498 -0.54321,1.861572 z m -7.87964,3.778076 1.06812,0.158692 c 0.0448,0.329588 0.16886,0.56966 0.37231,0.720214 0.27262,0.203449 0.64494,0.305175 1.11695,0.305176 0.50862,-10e-7 0.90128,-0.101727 1.17797,-0.305176 0.27669,-0.203451 0.46387,-0.488282 0.56153,-0.854492 0.057,-0.223796 0.0834,-0.693766 0.0793,-1.409912 -0.48014,0.565593 -1.07829,0.848389 -1.79443,0.848389 -0.89112,0 -1.58081,-0.321452 -2.06909,-0.964356 -0.48828,-0.642902 -0.73242,-1.413978 -0.73242,-2.313232 0,-0.618486 0.11189,-1.189164 0.33569,-1.712036 0.22379,-0.522863 0.5483,-0.926711 0.97351,-1.211548 0.42521,-0.284824 0.92468,-0.42724 1.49841,-0.427246 0.76497,6e-6 1.39567,0.309251 1.89209,0.927734 l 0,-0.78125 1.01319,0 0,5.603028 c -10e-6,1.009114 -0.10275,1.724242 -0.30823,2.145385 -0.20549,0.421141 -0.53101,0.753782 -0.97656,0.997925 -0.44556,0.244138 -0.99386,0.366208 -1.6449,0.366211 -0.77312,-3e-6 -1.39771,-0.173953 -1.87378,-0.521851 -0.47608,-0.347902 -0.70597,-0.871786 -0.6897,-1.571655 z m 0.90943,-3.894043 c -1e-5,0.850426 0.16886,1.470949 0.50659,1.861572 0.33772,0.390627 0.7609,0.585939 1.26953,0.585938 0.50455,10e-7 0.92773,-0.194294 1.26953,-0.582886 0.34179,-0.388588 0.51269,-0.997922 0.5127,-1.828003 -1e-5,-0.793453 -0.17599,-1.391597 -0.52796,-1.794433 -0.35197,-0.402827 -0.77617,-0.604243 -1.27258,-0.604248 -0.48829,5e-6 -0.90332,0.198369 -1.24512,0.595092 -0.3418,0.396734 -0.5127,0.985722 -0.51269,1.766968 z m -3.43628,2.557373 c -0.40691,0.345867 -0.79855,0.590007 -1.17493,0.732422 -0.37639,0.142415 -0.78024,0.213623 -1.21155,0.213623 -0.71208,0 -1.25936,-0.17395 -1.64184,-0.52185 -0.38249,-0.3479 -0.57373,-0.792439 -0.57373,-1.333619 0,-0.31738 0.0722,-0.607297 0.21667,-0.869751 0.14445,-0.262448 0.33366,-0.473019 0.56763,-0.631713 0.23396,-0.158688 0.49743,-0.278724 0.7904,-0.360108 0.21566,-0.05696 0.54118,-0.111894 0.97657,-0.164795 0.88704,-0.10579 1.54011,-0.231929 1.95922,-0.378418 0.004,-0.150549 0.006,-0.24617 0.006,-0.286865 -1e-5,-0.447586 -0.10377,-0.762934 -0.31128,-0.946045 -0.28077,-0.248204 -0.69784,-0.372309 -1.25122,-0.372314 -0.51677,5e-6 -0.89824,0.09054 -1.14441,0.271606 -0.24618,0.181076 -0.42827,0.501511 -0.54627,0.961304 l -1.07421,-0.146485 c 0.0977,-0.459793 0.25838,-0.831089 0.48217,-1.113891 0.2238,-0.28279 0.54728,-0.500482 0.97046,-0.653076 0.42318,-0.152582 0.91349,-0.228876 1.47095,-0.228882 0.55338,6e-6 1.00301,0.06511 1.34888,0.195312 0.34586,0.130215 0.60017,0.293993 0.76294,0.491333 0.16275,0.197353 0.27668,0.44658 0.34179,0.747681 0.0366,0.18718 0.0549,0.524907 0.0549,1.013184 l 0,1.464843 c 0,1.021324 0.0234,1.667278 0.0702,1.937867 0.0468,0.270589 0.13936,0.529988 0.27771,0.778198 l -1.14746,0 c -0.11393,-0.227865 -0.18718,-0.494384 -0.21972,-0.799561 z m -0.0916,-2.453613 c -0.39876,0.162764 -0.99691,0.30111 -1.79443,0.415039 -0.45166,0.06511 -0.77108,0.138349 -0.95825,0.219727 -0.18718,0.08138 -0.33163,0.200401 -0.43335,0.357055 -0.10173,0.156659 -0.15259,0.330609 -0.15259,0.521851 0,0.29297 0.11088,0.53711 0.33264,0.732422 0.22176,0.195313 0.54627,0.292969 0.97351,0.292968 0.42318,10e-7 0.79956,-0.09257 1.12915,-0.277709 0.32959,-0.185139 0.5717,-0.438435 0.72632,-0.759888 0.118,-0.248208 0.177,-0.614418 0.177,-1.098633 z m -6.91524,-4.431152 0,-1.263428 1.09863,0 0,1.263428 z m 0,7.684326 0,-6.481934 1.09863,0 0,6.481934 z m -6.96411,0 0,-8.947754 1.09863,0 0,3.210449 c 0.5127,-0.594069 1.15967,-0.891107 1.94092,-0.891113 0.48014,6e-6 0.89721,0.09461 1.25122,0.283813 0.354,0.189215 0.6073,0.450649 0.75989,0.784302 0.15258,0.333664 0.22887,0.817876 0.22888,1.452637 l 0,4.107666 -1.09863,0 0,-4.107666 c -1e-5,-0.549312 -0.11903,-0.949092 -0.35706,-1.199341 -0.23804,-0.250239 -0.57475,-0.375361 -1.01013,-0.375366 -0.32552,5e-6 -0.63172,0.08444 -0.91858,0.253296 -0.28687,0.168869 -0.49133,0.39775 -0.6134,0.686645 -0.12207,0.288904 -0.18311,0.687667 -0.18311,1.196289 l 0,3.546143 z m -1.06812,-0.982666 0.1587,0.970459 c -0.30925,0.0651 -0.58594,0.09766 -0.83008,0.09766 -0.39877,0 -0.70801,-0.06307 -0.92774,-0.189209 -0.21972,-0.126139 -0.37435,-0.291951 -0.46386,-0.497436 -0.0895,-0.205485 -0.13428,-0.637817 -0.13428,-1.296998 l 0,-3.729248 -0.80567,0 0,-0.854492 0.80567,0 0,-1.605224 1.09253,-0.65918 0,2.264404 1.10473,0 0,0.854492 -1.10473,0 0,3.790284 c 0,0.313315 0.0193,0.514731 0.058,0.604248 0.0387,0.08952 0.10172,0.160727 0.18921,0.213623 0.0875,0.0529 0.2126,0.07935 0.37537,0.07935 0.12206,10e-7 0.28279,-0.01424 0.48217,-0.04272 z m -6.68945,1.135254 2.594,-9.25293 0.8789,0 -2.58789,9.25293 z m -3.4668,0 2.594,-9.25293 0.8789,0 -2.58789,9.25293 z m -2.33764,-5.383301 0,-1.251221 1.25122,0 0,1.251221 z m 0,5.230713 0,-1.251221 1.25122,0 0,1.251221 z m -6.99463,-1.934815 1.08642,-0.170898 c 0.061,0.435386 0.23092,0.769044 0.50965,1.000976 0.27872,0.231935 0.66833,0.347902 1.16882,0.347901 0.50456,10e-7 0.8789,-0.102742 1.12305,-0.308228 0.24413,-0.205483 0.3662,-0.446572 0.36621,-0.723266 -1e-5,-0.248208 -0.10783,-0.44352 -0.32349,-0.585938 -0.15055,-0.09765 -0.5249,-0.221758 -1.12304,-0.372314 -0.80567,-0.203448 -1.36414,-0.379432 -1.67542,-0.527954 -0.31128,-0.148516 -0.54728,-0.354001 -0.70801,-0.616455 -0.16072,-0.262447 -0.24109,-0.552364 -0.24109,-0.869751 0,-0.288895 0.0661,-0.556432 0.19837,-0.802613 0.13224,-0.246169 0.31229,-0.450637 0.54016,-0.613403 0.1709,-0.126133 0.40385,-0.232944 0.69885,-0.320435 0.295,-0.08748 0.61137,-0.131219 0.9491,-0.131225 0.50862,6e-6 0.9552,0.07325 1.33972,0.219726 0.38452,0.146491 0.66833,0.344855 0.85144,0.595093 0.1831,0.25025 0.30924,0.584926 0.37842,1.004029 l -1.07422,0.146484 c -0.0488,-0.333654 -0.19023,-0.59407 -0.42419,-0.78125 -0.23398,-0.187169 -0.56458,-0.280756 -0.99183,-0.280762 -0.50455,6e-6 -0.86466,0.08342 -1.08032,0.250244 -0.21566,0.166835 -0.32349,0.362147 -0.32348,0.585938 -10e-6,0.14242 0.0448,0.270594 0.13427,0.384521 0.0895,0.118006 0.2299,0.215662 0.42115,0.292969 0.10986,0.04069 0.43334,0.134281 0.97046,0.280762 0.77717,0.207523 1.31937,0.377404 1.62658,0.509643 0.30721,0.132246 0.5483,0.324507 0.72327,0.576783 0.17496,0.252281 0.26244,0.565594 0.26245,0.939941 -1e-5,0.366212 -0.10682,0.711061 -0.32043,1.034546 -0.21363,0.323487 -0.52186,0.573731 -0.92469,0.750732 -0.40283,0.177002 -0.85856,0.265503 -1.36718,0.265503 -0.84229,0 -1.48418,-0.174967 -1.92566,-0.524902 -0.44149,-0.349934 -0.72327,-0.868733 -0.84534,-1.556397 z m -6.51856,4.418946 0,-8.966065 1.00098,0 0,0.842285 c 0.236,-0.329583 0.50252,-0.576776 0.79956,-0.741577 0.29704,-0.164788 0.65714,-0.247186 1.08032,-0.247192 0.55339,6e-6 1.04167,0.142422 1.46485,0.427246 0.42317,0.284837 0.74259,0.686651 0.95825,1.205444 0.21565,0.518804 0.32348,1.087447 0.32349,1.705933 -1e-5,0.663251 -0.11903,1.260378 -0.35706,1.791382 -0.23804,0.531007 -0.58391,0.937907 -1.0376,1.220703 -0.4537,0.282796 -0.93079,0.424194 -1.43127,0.424194 -0.36622,0 -0.69479,-0.07731 -0.98572,-0.231933 -0.29094,-0.154623 -0.52999,-0.349935 -0.71716,-0.585938 l 0,3.155518 z m 0.99488,-5.688477 c 0,0.83415 0.16886,1.450604 0.50659,1.849365 0.33772,0.398764 0.74666,0.598146 1.22681,0.598145 0.48827,10e-7 0.90636,-0.206501 1.25427,-0.619507 0.34789,-0.413003 0.52184,-1.052854 0.52185,-1.919556 -1e-5,-0.826005 -0.16989,-1.444494 -0.50964,-1.855468 -0.33977,-0.410965 -0.74565,-0.61645 -1.21766,-0.616455 -0.46794,5e-6 -0.88196,0.218714 -1.24206,0.656127 -0.36011,0.437424 -0.54016,1.073206 -0.54016,1.907349 z m -2.06299,2.22168 0.15869,0.970459 c -0.30925,0.0651 -0.58594,0.09766 -0.83008,0.09766 -0.39876,0 -0.70801,-0.06307 -0.92773,-0.189209 -0.21973,-0.126139 -0.37435,-0.291951 -0.46387,-0.497436 -0.0895,-0.205485 -0.13428,-0.637817 -0.13428,-1.296998 l 0,-3.729248 -0.80566,0 0,-0.854492 0.80566,0 0,-1.605224 1.09253,-0.65918 0,2.264404 1.10474,0 0,0.854492 -1.10474,0 0,3.790284 c 0,0.313315 0.0193,0.514731 0.058,0.604248 0.0387,0.08952 0.10172,0.160727 0.18921,0.213623 0.0875,0.0529 0.2126,0.07935 0.37536,0.07935 0.12207,10e-7 0.28279,-0.01424 0.48218,-0.04272 z m -3.4668,0 0.15869,0.970459 c -0.30924,0.0651 -0.58594,0.09766 -0.83007,0.09766 -0.39877,0 -0.70801,-0.06307 -0.92774,-0.189209 -0.21973,-0.126139 -0.37435,-0.291951 -0.46387,-0.497436 -0.0895,-0.205485 -0.13427,-0.637817 -0.13427,-1.296998 l 0,-3.729248 -0.80567,0 0,-0.854492 0.80567,0 0,-1.605224 1.09253,-0.65918 0,2.264404 1.10473,0 0,0.854492 -1.10473,0 0,3.790284 c -1e-5,0.313315 0.0193,0.514731 0.058,0.604248 0.0387,0.08952 0.10172,0.160727 0.18921,0.213623 0.0875,0.0529 0.2126,0.07935 0.37536,0.07935 0.12207,10e-7 0.2828,-0.01424 0.48218,-0.04272 z m -9.35669,0.982666 0,-8.947754 1.09864,0 0,3.210449 c 0.51269,-0.594069 1.15966,-0.891107 1.94091,-0.891113 0.48014,6e-6 0.89722,0.09461 1.25122,0.283813 0.354,0.189215 0.6073,0.450649 0.75989,0.784302 0.15258,0.333664 0.22888,0.817876 0.22888,1.452637 l 0,4.107666 -1.09863,0 0,-4.107666 c 0,-0.549312 -0.11902,-0.949092 -0.35705,-1.199341 -0.23805,-0.250239 -0.57476,-0.375361 -1.01014,-0.375366 -0.32552,5e-6 -0.63171,0.08444 -0.91858,0.253296 -0.28686,0.168869 -0.49133,0.39775 -0.6134,0.686645 -0.12207,0.288904 -0.18311,0.687667 -0.1831,1.196289 l 0,3.546143 z" /></g></svg>